<svg preserveAspectRatio="none" overflow="visible" style="display: block;" width="24.8854" height="26.4722" viewBox="0 0 24.8854 26.4722" fill="none" xmlns="http://www.w3.org/2000/svg">
<g id="Group">
<path id="Vector" d="M0 13.8634C0 20.9597 5.70017 26.4722 12.3261 26.4722C19.263 26.4722 24.8854 20.5509 24.8854 13.3184C24.8854 9.08889 22.9513 5.3762 20.0891 2.89507L17.9995 6.71575C19.7271 8.27127 20.9128 10.6727 20.9128 13.3749C20.9128 18.2858 17.0714 22.325 12.3261 22.325C7.60751 22.325 3.76367 18.2858 3.76367 13.2387C3.76367 12.637 3.81469 12.038 3.91917 11.4646L0 13.8634ZM16.1942 0.655634C15.0085 0.190262 13.9516 0 12.8946 0C12.0952 0 11.3979 0.107987 10.8828 0.218545L8.20037 5.12937C9.17956 4.5303 10.443 4.2012 11.811 4.2012C12.6103 4.2012 13.332 4.30919 14.0803 4.52773L16.1942 0.655634Z" fill="#404553"/>
</g>
</svg>
